# xmcd
#
# Track frame offsets:
# 150
# 22875
# 39187
# 77287
# 103725
# 126975
# 152700
# 176700
# 197775
# 230137
#
# Disc length: 3529 seconds
#
#
# Revision: 0
# Processed by: cddbd v1.5.2PL0 Copyright (c) Steve Scherf et al.
# Submitted via: Nero 7, 11, 10, 0 
#
DISCID=770dc70a
DTITLE=Michael Williams - Late Night Walk
DYEAR=1999
DGENRE=Blues
TTITLE0=Muck Rakin'
TTITLE1=Let's Talk About It
TTITLE2=Late Night Walk
TTITLE3=Just Last Night
TTITLE4=Shining Bright
TTITLE5=Voice Of An Old Friend
TTITLE6=Lazy Boy
TTITLE7=Got Me Once
TTITLE8=Laughing Through The Tears
TTITLE9=Post Consumer Blues
EXTD=
EXTT0=Muck Rakin'
EXTT1=Let's Talk About It
EXTT2=Late Night Walk
EXTT3=Just Last Night
EXTT4=Shining Bright
EXTT5=Voice Of An Old Friend
EXTT6=Lazy Boy
EXTT7=Got Me Once
EXTT8=Laughing Through The Tears
EXTT9=Post Consumer Blues
PLAYORDER=
